<svg id="visual" viewBox="0 0 600 900" width="600" height="900" xmlns="http://www.w3.org/2000/svg" xmlns:xlink="http://www.w3.org/1999/xlink" version="1.1"><rect x="0" y="0" width="600" height="900" fill="#FAFAFA"></rect><path d="M0 211L11.2 218.7C22.3 226.3 44.7 241.7 66.8 243.8C89 246 111 235 133.2 223.5C155.3 212 177.7 200 200 197.3C222.3 194.7 244.7 201.3 266.8 201.7C289 202 311 196 333.2 196.5C355.3 197 377.7 204 400 211.7C422.3 219.3 444.7 227.7 466.8 232.5C489 237.3 511 238.7 533.2 232.7C555.3 226.7 577.7 213.3 588.8 206.7L600 200L600 0L588.8 0C577.7 0 555.3 0 533.2 0C511 0 489 0 466.8 0C444.7 0 422.3 0 400 0C377.7 0 355.3 0 333.2 0C311 0 289 0 266.8 0C244.7 0 222.3 0 200 0C177.7 0 155.3 0 133.2 0C111 0 89 0 66.8 0C44.7 0 22.3 0 11.2 0L0 0Z" fill="#5cadf9"></path><path d="M0 142L11.2 138.5C22.3 135 44.7 128 66.8 133.3C89 138.7 111 156.3 133.2 164.7C155.3 173 177.7 172 200 174.7C222.3 177.3 244.7 183.7 266.8 179C289 174.3 311 158.7 333.2 148.8C355.3 139 377.7 135 400 139.5C422.3 144 444.7 157 466.8 168.7C489 180.3 511 190.7 533.2 185.2C555.3 179.7 577.7 158.3 588.8 147.7L600 137L600 0L588.8 0C577.7 0 555.3 0 533.2 0C511 0 489 0 466.8 0C444.7 0 422.3 0 400 0C377.7 0 355.3 0 333.2 0C311 0 289 0 266.8 0C244.7 0 222.3 0 200 0C177.7 0 155.3 0 133.2 0C111 0 89 0 66.8 0C44.7 0 22.3 0 11.2 0L0 0Z" fill="#5099dc"></path><path d="M0 119L11.2 114.5C22.3 110 44.7 101 66.8 101.8C89 102.7 111 113.3 133.2 114.7C155.3 116 177.7 108 200 104.8C222.3 101.7 244.7 103.3 266.8 104.3C289 105.3 311 105.7 333.2 107.3C355.3 109 377.7 112 400 106.3C422.3 100.7 444.7 86.3 466.8 86.2C489 86 511 100 533.2 98C555.3 96 577.7 78 588.8 69L600 60L600 0L588.8 0C577.7 0 555.3 0 533.2 0C511 0 489 0 466.8 0C444.7 0 422.3 0 400 0C377.7 0 355.3 0 333.2 0C311 0 289 0 266.8 0C244.7 0 222.3 0 200 0C177.7 0 155.3 0 133.2 0C111 0 89 0 66.8 0C44.7 0 22.3 0 11.2 0L0 0Z" fill="#4585bf"></path></svg>