<svg id="visual" viewBox="0 0 900 600" width="900" height="600" xmlns="http://www.w3.org/2000/svg" xmlns:xlink="http://www.w3.org/1999/xlink" version="1.1"><rect x="0" y="0" width="900" height="600" fill="#FAFAFA"></rect><path d="M0 458L15 442.2C30 426.3 60 394.7 90 400.2C120 405.7 150 448.3 180 459.2C210 470 240 449 270 448.2C300 447.3 330 466.7 360 461.7C390 456.7 420 427.3 450 410.7C480 394 510 390 540 407.8C570 425.7 600 465.3 630 474.5C660 483.7 690 462.3 720 467.3C750 472.3 780 503.7 810 511.7C840 519.7 870 504.3 885 496.7L900 489L900 601L885 601C870 601 840 601 810 601C780 601 750 601 720 601C690 601 660 601 630 601C600 601 570 601 540 601C510 601 480 601 450 601C420 601 390 601 360 601C330 601 300 601 270 601C240 601 210 601 180 601C150 601 120 601 90 601C60 601 30 601 15 601L0 601Z" fill="#22a1f6" stroke-linecap="round" stroke-linejoin="miter"></path></svg>