<svg id="visual" viewBox="0 0 960 540" width="960" height="540" xmlns="http://www.w3.org/2000/svg" xmlns:xlink="http://www.w3.org/1999/xlink" version="1.1"><rect x="0" y="0" width="960" height="540" fill="#FAFAFA"></rect><path d="M0 44L13.3 45.3C26.7 46.7 53.3 49.3 80 54.3C106.7 59.3 133.3 66.7 160 65.5C186.7 64.3 213.3 54.7 240 49.3C266.7 44 293.3 43 320 47.8C346.7 52.7 373.3 63.3 400 63.8C426.7 64.3 453.3 54.7 480 49.7C506.7 44.7 533.3 44.3 560 43C586.7 41.7 613.3 39.3 640 39.7C666.7 40 693.3 43 720 46C746.7 49 773.3 52 800 55.7C826.7 59.3 853.3 63.7 880 65.7C906.7 67.7 933.3 67.3 946.7 67.2L960 67L960 0L946.7 0C933.3 0 906.7 0 880 0C853.3 0 826.7 0 800 0C773.3 0 746.7 0 720 0C693.3 0 666.7 0 640 0C613.3 0 586.7 0 560 0C533.3 0 506.7 0 480 0C453.3 0 426.7 0 400 0C373.3 0 346.7 0 320 0C293.3 0 266.7 0 240 0C213.3 0 186.7 0 160 0C133.3 0 106.7 0 80 0C53.3 0 26.7 0 13.3 0L0 0Z" fill="#4686C1" stroke-linecap="round" stroke-linejoin="miter"></path></svg>